<svg width="64" height="64" viewBox="0 0 64 64" fill="none" xmlns="http://www.w3.org/2000/svg">
    <rect width="64" height="64" rx="20" fill="white" />
    <path
        d="M34.5498 12C36.7498 17.0906 26.6623 20.2344 25.7248 24.475C24.8654 28.3719 31.7186 32.9 31.7248 32.9C30.6842 31.2875 29.9186 29.9594 28.8748 27.45C27.1092 23.2063 39.6279 19.3656 34.5498 12ZM41.2498 19.05C41.2498 19.05 32.3998 19.6188 31.9498 25.275C31.7498 27.7938 34.2779 29.1188 34.3498 30.95C34.4092 32.4469 32.8498 33.7 32.8498 33.7C32.8498 33.7 35.6873 33.1594 36.5748 30.875C37.5592 28.3406 34.6561 26.6281 34.9498 24.6C35.2311 22.6594 41.2498 19.05 41.2498 19.05ZM27.3498 32.125C27.3498 32.125 19.2498 32.0094 19.2498 34.3C19.2498 36.6938 29.8529 36.8719 37.4248 35.4C37.4248 35.4 39.4373 34.0156 39.9748 33.5C35.0123 34.5125 23.6998 34.625 23.6998 33.75C23.6998 32.9438 27.3498 32.125 27.3498 32.125ZM42.9248 32.125C42.1311 32.1875 41.2748 32.4938 40.4998 33.05C42.3248 32.6562 43.8748 33.7875 43.8748 35.075C43.8748 37.975 39.6748 40.7 39.6748 40.7C39.6748 40.7 46.1748 39.9625 46.1748 35.2C46.1748 33.0375 44.6717 31.9875 42.9248 32.125ZM25.3998 36.575C24.1561 36.575 22.2998 37.55 22.2998 38.475C22.2998 40.3344 31.6498 41.7656 38.5748 39.05L36.1748 37.575C31.4811 39.0781 22.8373 38.5875 25.3998 36.575ZM26.5498 40.75C24.8467 40.75 23.7248 41.7781 23.7248 42.55C23.7248 44.9375 33.8967 45.1781 37.9248 42.75L35.3748 41.125C32.3654 42.3969 24.8123 42.5906 26.5498 40.75ZM20.8748 42.9C18.0998 42.8438 16.2998 44.0906 16.2998 45.125C16.2998 50.625 44.6998 50.3719 44.6998 44.75C44.6998 43.8156 43.6217 43.3625 43.2248 43.15C45.5467 48.525 19.9748 48.0969 19.9748 44.925C19.9748 44.2031 21.8561 43.5125 23.5998 43.85L22.1248 43C21.6904 42.9344 21.2717 42.9094 20.8748 42.9ZM47.6998 46.6C43.3811 50.6938 32.4373 52.1781 21.4248 49.65C32.4342 54.1562 47.6467 51.6281 47.6998 46.6Z"
        fill="black" />
</svg>