<svg width="64" height="64" viewBox="0 0 64 64" fill="none" xmlns="http://www.w3.org/2000/svg">
    <rect width="64" height="64" rx="20" fill="white" />
    <path fill-rule="evenodd" clip-rule="evenodd"
        d="M50 46.2391L32 54L14 46.2391C14.9 41.2174 16.4003 37.5652 20.75 36.1957C27.5 34.0703 27.05 31.1739 27.05 31.1739C24.4696 28.7044 24.5864 26.0264 24.7891 21.3802L24.8 21.1304C23.8059 21.1304 23 20.3129 23 19.3043V17.4783V13.1413C23 12.511 23.5037 12 24.125 12C24.7463 12 25.25 12.511 25.25 13.1413V13.3696H34.7C37.0334 13.3696 38.952 15.1713 39.1778 17.4783C39.1925 17.6284 39.2 17.7807 39.2 17.9348V22.0435C39.2 22.5292 39.2053 22.9843 39.2103 23.4136C39.2475 26.6153 39.2681 28.3806 36.95 30.7174C37.3119 34.0217 39.5071 34.8514 42.1553 35.8525C42.8 36.0962 43.4715 36.35 44.15 36.6522C48.1255 38.4227 49.55 40.7609 50 46.2391ZM29.3 48.5217L32 50.3478L34.7 48.5217L33.0269 41.0123C34.0088 40.6024 34.7 39.6222 34.7 38.4783C34.7 36.9655 33.4912 35.7391 32 35.7391C30.5088 35.7391 29.3 36.9655 29.3 38.4783C29.3 39.6222 29.9912 40.6024 30.9731 41.0123L29.3 48.5217Z"
        fill="black" />
</svg>