<svg width="64" height="64" viewBox="0 0 64 64" fill="none" xmlns="http://www.w3.org/2000/svg">
    <rect width="64" height="64" rx="20" fill="white" />
    <path
        d="M31.2344 51.7521L36.1112 44.7304L31.2344 37.6514H34.364L37.6664 42.5742L41.0648 37.6514H44.1176L39.2024 44.7304L44.1176 51.7521H41.0648L37.6664 46.8865L34.364 51.7521H31.2344Z"
        fill="black" />
    <path
        d="M20.1641 37.6514H22.7945V46.5812C22.7945 47.6307 22.8713 48.0695 23.1401 48.5275C23.5049 49.119 24.1769 49.4815 24.9449 49.4815C25.7321 49.4815 26.4041 49.119 26.7689 48.5275C27.0377 48.0695 27.1145 47.6307 27.1145 46.5812V37.6514H29.7449V46.5812C29.7449 48.2794 29.4377 49.3479 28.7273 50.2638C27.8633 51.3514 26.4425 52.0002 24.9449 52.0002C23.2361 52.0002 21.6809 51.1606 20.8745 49.8059C20.3753 48.9663 20.1641 48.0314 20.1641 46.5812V37.6514Z"
        fill="black" />
    <path d="M36.7002 26.1008V12H39.3306V26.1008H36.7002Z" fill="black" />
    <path
        d="M24.4004 12H27.0308V20.9298C27.0308 21.9793 27.1076 22.4182 27.3764 22.8761C27.7412 23.4676 28.4132 23.8301 29.1812 23.8301C29.9684 23.8301 30.6404 23.4676 31.0052 22.8761C31.274 22.4182 31.3508 21.9793 31.3508 20.9298V12H33.9812V20.9298C33.9812 22.628 33.674 23.6966 32.9636 24.6125C32.0996 25.7001 30.6788 26.3488 29.1812 26.3488C27.4724 26.3488 25.9172 25.5093 25.1108 24.1545C24.6116 23.315 24.4004 22.38 24.4004 20.9298V12Z"
        fill="black" />
    <rect x="18" y="30.2861" width="28.8" height="3.18015" rx="1.59007" fill="black" />
</svg>